<svg width="12" height="12" viewBox="0 0 12 12" fill="none" xmlns="http://www.w3.org/2000/svg">
<path d="M8.75169 0H3.24828C1.45715 0 0 1.45715 0 3.24828V8.75178C0 10.5428 1.45715 12 3.24828 12H8.75178C10.5428 12 12 10.5428 12 8.75178V3.24828C12 1.45715 10.5428 0 8.75169 0V0ZM5.99999 9.28114C4.19073 9.28114 2.71884 7.80925 2.71884 5.99999C2.71884 4.19073 4.19073 2.71884 5.99999 2.71884C7.80925 2.71884 9.28114 4.19073 9.28114 5.99999C9.28114 7.80925 7.80925 9.28114 5.99999 9.28114ZM9.3596 3.49264C8.82493 3.49264 8.39006 3.05776 8.39006 2.5231C8.39006 1.98843 8.82493 1.55346 9.3596 1.55346C9.89427 1.55346 10.3292 1.98843 10.3292 2.5231C10.3292 3.05776 9.89427 3.49264 9.3596 3.49264Z" fill="white"/>
<path d="M5.99999 3.4223C4.57873 3.4223 3.42233 4.57861 3.42233 5.99996C3.42233 7.42123 4.57873 8.57763 5.99999 8.57763C7.42135 8.57763 8.57766 7.42123 8.57766 5.99996C8.57766 4.57861 7.42135 3.4223 5.99999 3.4223Z" fill="white"/>
<path d="M9.35959 2.25702C9.21292 2.25702 9.09354 2.3764 9.09354 2.52307C9.09354 2.66974 9.21292 2.78912 9.35959 2.78912C9.50635 2.78912 9.62573 2.66983 9.62573 2.52307C9.62573 2.37631 9.50635 2.25702 9.35959 2.25702Z" fill="white"/>
</svg>
