<svg width="34" height="34" viewBox="0 0 34 34" fill="none" xmlns="http://www.w3.org/2000/svg">
<path d="M20.2968 8.20335C20.182 7.77503 19.9073 7.41697 19.5233 7.1953C18.7307 6.73763 17.7133 7.0101 17.2555 7.80299L17 8.24552L16.7445 7.80292C16.2867 7.01023 15.2695 6.73763 14.4767 7.19524H14.4766C13.6839 7.65298 13.4113 8.67025 13.869 9.46308L15.083 11.5658L10.6036 19.3243H7.33789C6.42248 19.3243 5.67773 20.0691 5.67773 20.9845C5.67773 21.8999 6.42248 22.6447 7.33789 22.6447H19.9458L18.0288 19.3243H14.4376L20.1309 9.46314C20.3527 9.07912 20.4116 8.63167 20.2968 8.20335Z" fill="white"/>
<path d="M26.6621 19.3242H23.3964L19.6838 12.8938L17.7669 16.2141L23.5312 26.1982C23.7529 26.5823 24.1109 26.857 24.5393 26.9718C24.6824 27.0101 24.8275 27.0291 24.9717 27.0291C25.2594 27.0291 25.5433 26.9537 25.7992 26.8059C26.592 26.3482 26.8645 25.3308 26.4067 24.5382L25.3134 22.6445H26.6621C27.5776 22.6445 28.3223 21.8998 28.3223 20.9844C28.3223 20.069 27.5776 19.3242 26.6621 19.3242Z" fill="white"/>
<path d="M7.91985 23.9727L7.59333 24.5382C7.13566 25.3309 7.40826 26.3483 8.20101 26.8059C8.46179 26.9565 8.74681 27.0281 9.0283 27.028C9.60245 27.028 10.1617 26.7302 10.4689 26.1983L11.7538 23.9727H7.91985Z" fill="white"/>
</svg>
