<svg width="16" height="16" viewBox="0 0 16 16" fill="none" xmlns="http://www.w3.org/2000/svg">
<g clip-path="url(#clip0)">
<path d="M3.49223 0.255884C2.86626 -0.0900969 2.1313 -0.0820974 1.50934 0.260883L8.79893 6.9855L11.2478 4.53664L3.49223 0.255884Z" fill="white"/>
<path d="M0.780411 0.94873C0.602421 1.23971 0.500427 1.5727 0.500427 1.92568V14.071C0.500427 14.413 0.593422 14.739 0.761412 15.0239L8.092 7.69335L0.780411 0.94873Z" fill="white"/>
<path d="M14.4946 6.32848L12.1587 5.03955L9.53387 7.6634L12.7507 10.6302L14.4956 9.66729C15.1236 9.31931 15.4995 8.69534 15.4995 7.99738C15.4985 7.29942 15.1236 6.67546 14.4946 6.32848Z" fill="white"/>
<path d="M8.82696 8.37134L1.47638 15.7219C1.79536 15.9039 2.14534 15.9999 2.49732 15.9999C2.8373 15.9999 3.17928 15.9139 3.49227 15.7409L11.8288 11.1402L8.82696 8.37134Z" fill="white"/>
</g>
<defs>
<clipPath id="clip0">
<rect width="16" height="16" fill="white"/>
</clipPath>
</defs>
</svg>
