<svg width="36" height="36" viewBox="0 0 36 36" fill="none" xmlns="http://www.w3.org/2000/svg">
<g clip-path="url(#clip0)">
<path d="M24.6473 2.33435C25.1959 2.42661 28.4382 2.96682 28.6588 3.00353V0H7.34117V5.09718C9.69515 5.48951 8.91952 5.36026 11.0943 5.72259C18.9494 3.75882 22.5402 2.86306 24.6473 2.33435Z" fill="#FFB83A"/>
<path d="M11.7805 29.0407C11.2673 29.1692 11.4649 29.1671 10.9186 29.0753C9.09458 28.7711 9.89294 28.9045 7.34117 28.4788V36H28.6588V26.3852C26.3047 25.9927 27.0805 26.1219 24.9056 25.7598L11.7805 29.0407ZM21.3882 32.7529H14.6118V30.6353H21.3882V32.7529Z" fill="#FFB83A"/>
<path d="M6.09598 16.6234C7.78799 15.1192 6.84351 15.9592 10.1647 13.0065C10.1647 12.1749 10.1647 9.04333 10.1647 7.7145C8.54314 7.44429 2.3061 6.4053 -1.52588e-05 6.02039V11.882C3.69549 14.7558 -1.3251 10.8511 6.09598 16.6234Z" fill="#FFB83A"/>
<path d="M34.4923 6.12217C34.4363 6.11222 34.779 5.84653 29.9259 9.94876L31.2085 15.0819C36.461 14.0952 31.9037 14.9508 36 14.1834C36 13.4687 36 7.37836 36 6.37347L34.4923 6.12217Z" fill="#FFB83A"/>
<path d="M10.1647 26.803C10.1647 25.7534 10.1647 17.0786 10.1647 15.84C6.89222 18.7489 7.7414 17.9943 6.18634 19.3765C1.78777 15.9541 4.17175 17.8101 -1.52588e-05 14.5645V25.1089C5.56678 26.036 9.84796 26.7506 10.1647 26.803Z" fill="#FFB83A"/>
<path d="M17.0118 6.30286L12.2958 7.60521C12.2742 7.61086 12.2824 7.02815 12.2824 18.4299L17.0118 14.4254C17.0118 13.6991 17.0118 7.1106 17.0118 6.30286Z" fill="#FFB83A"/>
<path d="M23.7113 4.75126L19.1294 5.77338V14.3026L23.7177 17.7995C23.7177 4.05526 23.7213 4.74907 23.7113 4.75126Z" fill="#FFB83A"/>
<path d="M12.2823 26.7325C12.2911 26.7303 23.7101 23.8756 23.7177 23.8737C23.7177 23.0749 23.7177 21.0839 23.7177 20.2857L18.0529 16.3539L12.2823 21.2922V26.7325Z" fill="#FFB83A"/>
<path d="M30.9762 17.2793C30.6262 17.676 25.3074 23.6859 25.344 23.6859C25.3521 23.6859 34.9599 25.2883 36 25.4619C36 24.4089 36 17.5093 36 16.3376C34.7001 16.5812 35.1906 16.4899 30.9762 17.2793Z" fill="#FFB83A"/>
<path d="M25.8353 19.9058C29.1586 16.1397 28.4689 16.9213 29.2616 16.0228C28.5104 13.0179 28.775 14.076 28.1238 11.4727L25.8353 13.4089V19.9058Z" fill="#FFB83A"/>
<path d="M25.8353 4.67932V10.6356C29.6195 7.43332 30.2388 6.91125 31.7174 5.65979C25.4795 4.6208 27.4709 4.95052 25.8353 4.67932Z" fill="#FFB83A"/>
</g>
<defs>
<clipPath id="clip0">
<rect width="36" height="36" fill="white"/>
</clipPath>
</defs>
</svg>
