<svg width="36" height="36" viewBox="0 0 36 36" fill="none" xmlns="http://www.w3.org/2000/svg">
<g clip-path="url(#clip0)">
<path d="M30.9142 33.8828L16.755 26.3858C16.386 26.1901 15.936 26.2171 15.5872 26.4533L4.76022 33.9503C4.35522 34.2315 4.17972 34.7423 4.32822 35.2125C4.47222 35.6783 4.90872 36 5.39921 36H30.3854C30.9007 36 31.3529 35.649 31.4767 35.145C31.6027 34.6433 31.3687 34.1235 30.9142 33.8828Z" fill="#FFB83A"/>
<path d="M35.6527 31.7452L32.3227 16.7535C32.2417 16.3867 31.983 16.0875 31.6342 15.9502C31.2832 15.813 30.8895 15.8602 30.5835 16.0717L19.7542 23.5687C19.4302 23.7937 19.248 24.1695 19.2727 24.5587C19.2952 24.9525 19.5225 25.3035 19.869 25.4857L34.026 32.9827C34.1925 33.0705 34.3725 33.1155 34.5525 33.1155C34.7932 33.1155 35.034 33.039 35.2342 32.8837C35.583 32.6182 35.7472 32.175 35.6527 31.7452Z" fill="#FFB83A"/>
<path d="M27.8182 14.2897C27.6697 13.8195 27.2354 13.5 26.7427 13.5H16.4737C14.6062 16.8818 11.8432 20.115 10.7069 21.3795C10.0679 22.0905 9.1522 22.5 8.19595 22.5C7.2397 22.5 6.32395 22.0905 5.68495 21.3795C5.2462 20.8912 4.5667 20.1105 3.7882 19.143L1.0657 31.3965C0.966702 31.8488 1.15345 32.3145 1.53595 32.5732C1.72495 32.7015 1.94545 32.7645 2.1637 32.7645C2.3887 32.7645 2.61145 32.6992 2.80495 32.5642L27.3817 15.5475C27.7889 15.2707 27.9622 14.76 27.8182 14.2897Z" fill="#FFB83A"/>
<path d="M8.19598 0C3.85348 0 0.320984 3.5325 0.320984 7.875C0.320984 11.916 6.63898 19.0732 7.35898 19.8765C7.57273 20.1127 7.87648 20.25 8.19598 20.25C8.51548 20.25 8.81923 20.1127 9.03298 19.8765C9.75298 19.0732 16.071 11.916 16.071 7.875C16.071 3.5325 12.5385 0 8.19598 0ZM8.19598 11.25C6.33298 11.25 4.82098 9.738 4.82098 7.875C4.82098 6.012 6.33298 4.5 8.19598 4.5C10.059 4.5 11.571 6.012 11.571 7.875C11.571 9.738 10.059 11.25 8.19598 11.25Z" fill="#FFB83A"/>
</g>
<defs>
<clipPath id="clip0">
<rect width="36" height="36" fill="white"/>
</clipPath>
</defs>
</svg>
