<svg width="15" height="15" viewBox="0 0 15 15" fill="none" xmlns="http://www.w3.org/2000/svg">
<g clip-path="url(#clip0)">
<path d="M0.239729 8.08278L5.65677 13.4999C5.8114 13.6546 6.0175 13.7394 6.23725 13.7394C6.45725 13.7394 6.66323 13.6544 6.81786 13.4999L7.30968 13.008C7.4642 12.8536 7.54932 12.6474 7.54932 12.4275C7.54932 12.2077 7.4642 11.9946 7.30968 11.8402L4.14946 8.67302L14.1896 8.67302C14.6423 8.67302 15 8.31863 15 7.86583L15 7.17035C15 6.71755 14.6423 6.32743 14.1896 6.32743L4.11361 6.32743L7.30956 3.14258C7.46407 2.98794 7.54919 2.78734 7.54919 2.56746C7.54919 2.34783 7.46407 2.14429 7.30956 1.98978L6.81773 1.49942C6.6631 1.34479 6.45713 1.26052 6.23713 1.26052C6.01737 1.26052 5.81128 1.34588 5.65665 1.50052L0.239607 6.91755C0.0846084 7.07267 -0.000634758 7.27974 -2.43873e-05 7.49986C-0.000512649 7.72071 0.0846085 7.9279 0.239729 8.08278Z" fill="#5D58B7"/>
</g>
<defs>
<clipPath id="clip0">
<rect width="15" height="15" fill="white" transform="translate(15 15) rotate(180)"/>
</clipPath>
</defs>
</svg>
