<svg width="12" height="12" viewBox="0 0 12 12" fill="none" xmlns="http://www.w3.org/2000/svg">
<g clip-path="url(#clip0)">
<path d="M8 2V1.5C7.99955 1.10231 7.84137 0.721041 7.56017 0.439833C7.27896 0.158625 6.89769 0.000446645 6.5 0L5.5 0C5.10231 0.000446645 4.72104 0.158625 4.43983 0.439833C4.15863 0.721041 4.00045 1.10231 4 1.5V2H0.5V3H11.5V2H8ZM5 1.5C5.00015 1.36744 5.05288 1.24035 5.14661 1.14661C5.24035 1.05288 5.36744 1.00015 5.5 1H6.5C6.63256 1.00015 6.75965 1.05288 6.85339 1.14661C6.94712 1.24035 6.99985 1.36744 7 1.5V2H5V1.5Z" fill="#5D58B7"/>
<path d="M1.9041 10.6657C1.94455 11.0327 2.11909 11.3719 2.39423 11.6181C2.66937 11.8644 3.02573 12.0004 3.39497 12H8.60485C8.9741 12.0004 9.33047 11.8644 9.60561 11.6181C9.88075 11.3719 10.0553 11.0327 10.0957 10.6656L10.8919 3.5H1.10791L1.9041 10.6657ZM8.00166 4.45844L8.99816 4.54157L8.49816 10.5416L7.50166 10.4585L8.00166 4.45844ZM5.49991 4.5H6.49991V10.5H5.49991V4.5ZM3.99816 4.45844L4.49816 10.4585L3.50166 10.5416L3.00166 4.54157L3.99816 4.45844Z" fill="#5D58B7"/>
</g>
<defs>
<clipPath id="clip0">
<rect width="12" height="12" fill="white"/>
</clipPath>
</defs>
</svg>
