<svg width="10" height="10" viewBox="0 0 10 10" fill="none" xmlns="http://www.w3.org/2000/svg">
<g clip-path="url(#clip0)">
<path d="M3.64336 5.51697C3.64336 5.39171 3.54175 5.29022 3.41638 5.29022H2.62432C2.49909 5.29022 2.39746 5.39171 2.39746 5.51697V6.30893C2.39746 6.43436 2.49909 6.53589 2.62432 6.53589H3.41638C3.54175 6.53589 3.64336 6.43436 3.64336 6.30893V5.51697Z" fill="#5D58B7"/>
<path d="M5.62284 5.51697C5.62284 5.39171 5.52122 5.29022 5.39609 5.29022H4.60393C4.4787 5.29022 4.37708 5.39171 4.37708 5.51697V6.30893C4.37708 6.43436 4.4787 6.53589 4.60393 6.53589H5.39609C5.52122 6.53589 5.62284 6.43436 5.62284 6.30893V5.51697Z" fill="#5D58B7"/>
<path d="M7.60246 5.51697C7.60246 5.39171 7.50083 5.29022 7.37561 5.29022H6.58354C6.45817 5.29022 6.35657 5.39171 6.35657 5.51697V6.30893C6.35657 6.43436 6.45817 6.53589 6.58354 6.53589H7.37561C7.50083 6.53589 7.60246 6.43436 7.60246 6.30893V5.51697Z" fill="#5D58B7"/>
<path d="M3.64336 7.49665C3.64336 7.37118 3.54175 7.26978 3.41638 7.26978H2.62432C2.49909 7.26978 2.39746 7.37118 2.39746 7.49665V8.28847C2.39746 8.41382 2.49909 8.51533 2.62432 8.51533H3.41638C3.54175 8.51533 3.64336 8.4138 3.64336 8.28847V7.49665Z" fill="#5D58B7"/>
<path d="M5.62284 7.49665C5.62284 7.37118 5.52122 7.26978 5.39609 7.26978H4.60393C4.4787 7.26978 4.37708 7.37118 4.37708 7.49665V8.28847C4.37708 8.41382 4.4787 8.51533 4.60393 8.51533H5.39609C5.52122 8.51533 5.62284 8.4138 5.62284 8.28847V7.49665Z" fill="#5D58B7"/>
<path d="M7.60246 7.49665C7.60246 7.37118 7.50083 7.26978 7.37571 7.26978H6.58354C6.45817 7.26978 6.35657 7.37118 6.35657 7.49665V8.28847C6.35657 8.41382 6.45817 8.51533 6.58354 8.51533H7.37571C7.50083 8.51533 7.60246 8.4138 7.60246 8.28847V7.49665Z" fill="#5D58B7"/>
<path d="M9.01878 1.11344V2.32311C9.01878 2.86987 8.57523 3.31047 8.02856 3.31047H7.4039C6.85718 3.31047 6.40775 2.86987 6.40775 2.32311V1.1091H3.59224V2.32311C3.59224 2.86987 3.14283 3.31047 2.59619 3.31047H1.97141C1.42475 3.31047 0.981224 2.86987 0.981224 2.32311V1.11344C0.503443 1.12784 0.11084 1.52319 0.11084 2.00913V9.09835C0.11084 9.59342 0.512108 10 1.00718 10H8.99281C9.48714 10 9.88915 9.59258 9.88915 9.09835V2.00913C9.88915 1.52319 9.49656 1.12784 9.01878 1.11344ZM8.72865 8.65689C8.72865 8.87084 8.55518 9.04441 8.34114 9.04441H1.64178C1.42775 9.04441 1.25427 8.87084 1.25427 8.65689V4.99505C1.25427 4.78102 1.42772 4.60745 1.64178 4.60745H8.34112C8.55516 4.60745 8.72863 4.78102 8.72863 4.99505L8.72865 8.65689Z" fill="#5D58B7"/>
<path d="M1.96924 2.66198H2.58712C2.77467 2.66198 2.92673 2.51014 2.92673 2.3226V0.339505C2.92673 0.15194 2.77467 0 2.58712 0H1.96924C1.78168 0 1.62964 0.15194 1.62964 0.339505V2.3226C1.62964 2.51014 1.78168 2.66198 1.96924 2.66198Z" fill="#5D58B7"/>
<path d="M7.39598 2.66198H8.01386C8.20129 2.66198 8.35335 2.51014 8.35335 2.3226V0.339505C8.35337 0.15194 8.20131 0 8.01386 0H7.39598C7.20846 0 7.0564 0.15194 7.0564 0.339505V2.3226C7.0564 2.51014 7.20846 2.66198 7.39598 2.66198Z" fill="#5D58B7"/>
</g>
<defs>
<clipPath id="clip0">
<rect width="10" height="10" fill="white"/>
</clipPath>
</defs>
</svg>
