<svg width="46" height="46" viewBox="0 0 46 46" fill="none" xmlns="http://www.w3.org/2000/svg">
<path d="M23 0C10.3173 0 0 10.3173 0 23C0 35.6827 10.3173 46 23 46C35.6827 46 46 35.6827 46 23C46 10.3173 35.6827 0 23 0ZM34.6572 18.126L22.1988 30.5841C21.825 30.9578 21.3344 31.146 20.8438 31.146C20.3531 31.146 19.8625 30.9578 19.4887 30.5841L13.2597 24.355C12.51 23.6057 12.51 22.3943 13.2597 21.645C14.009 20.8953 15.2201 20.8953 15.9697 21.645L20.8438 26.519L31.9472 15.4159C32.6965 14.6663 33.9076 14.6663 34.6572 15.4159C35.4065 16.1652 35.4065 17.3763 34.6572 18.126Z" fill="#5D58B7"/>
</svg>
