<svg width="10" height="10" viewBox="0 0 10 10" fill="none" xmlns="http://www.w3.org/2000/svg">
<path d="M4.52331 4.9664L0.0970606 9.39264C-0.0259082 9.51561 -0.0259082 9.71483 0.0970606 9.8378C0.158467 9.89936 0.239092 9.92999 0.319561 9.92999C0.400186 9.92999 0.480654 9.89936 0.542061 9.8378L5.00159 5.37827L9.46112 9.8378C9.52269 9.89936 9.60316 9.92999 9.68362 9.92999C9.76409 9.92999 9.84472 9.89936 9.90612 9.8378C10.0291 9.71483 10.0291 9.51561 9.90612 9.39264L5.48003 4.9664L9.90909 0.537021C10.0321 0.414053 10.0321 0.214834 9.90909 0.0918652C9.78612 -0.0309473 9.58691 -0.0309473 9.46409 0.0918652L5.00175 4.55452L0.538936 0.0920215C0.415967 -0.030791 0.216904 -0.030791 0.0939356 0.0920215C-0.0290332 0.21499 -0.0290332 0.414209 0.0939356 0.537178L4.52331 4.9664Z" fill="#9B9B9B"/>
</svg>
