<svg width="7" height="7" viewBox="0 0 7 7" fill="none" xmlns="http://www.w3.org/2000/svg">
<path d="M4.07052 3.48615L6.64595 0.910641C6.81355 0.743114 6.81355 0.472248 6.64595 0.304722C6.47842 0.137196 6.20755 0.137196 6.04003 0.304722L3.46452 2.88023L0.889093 0.304722C0.721488 0.137196 0.4507 0.137196 0.283174 0.304722C0.11557 0.472248 0.11557 0.743114 0.283174 0.910641L2.8586 3.48615L0.283174 6.06166C0.11557 6.22918 0.11557 6.50005 0.283174 6.66758C0.366662 6.75114 0.476437 6.79312 0.586133 6.79312C0.695829 6.79312 0.805526 6.75114 0.889093 6.66758L3.46452 4.09207L6.04003 6.66758C6.12359 6.75114 6.23329 6.79312 6.34299 6.79312C6.45268 6.79312 6.56238 6.75114 6.64595 6.66758C6.81355 6.50005 6.81355 6.22918 6.64595 6.06166L4.07052 3.48615Z" fill="#5D58B7"/>
</svg>
