<svg width="127" height="22" viewBox="0 0 127 22" fill="none" xmlns="http://www.w3.org/2000/svg">
<path d="M0.723389 21.439L6.885 2.7455H10.0554L16.217 21.439H13.3085L11.6682 16.0204H5.16196L3.5354 21.439H0.723389ZM5.80982 13.8056H11.0341L10.2346 11.2008C9.92216 10.1885 9.61891 9.16239 9.32484 8.12232C9.03996 7.08224 8.75968 6.03288 8.48399 4.97423H8.35993C8.09344 6.03288 7.81315 7.08224 7.51909 8.12232C7.23421 9.16239 6.93555 10.1885 6.6231 11.2008L5.80982 13.8056Z" fill="white"/>
<path d="M18.3812 21.439V7.50942H20.628L20.8486 10.0167H20.9589C21.4275 9.12525 22.0019 8.42877 22.6819 7.9273C23.3711 7.41655 24.0971 7.16118 24.8598 7.16118C25.448 7.16118 25.9488 7.25868 26.3623 7.4537L25.8661 9.86352C25.6364 9.78923 25.4204 9.73351 25.2182 9.69636C25.0161 9.65922 24.7725 9.64064 24.4877 9.64064C23.9271 9.64064 23.3344 9.8728 22.7095 10.3371C22.0846 10.7922 21.5516 11.5769 21.1105 12.6912V21.439H18.3812Z" fill="white"/>
<path d="M33.0891 21.7872C31.5636 21.7872 30.493 21.3415 29.8773 20.45C29.2708 19.5585 28.9676 18.3931 28.9676 16.9537V9.73815H26.9551V7.66264L29.0916 7.50942L29.4225 3.65092H31.7107V7.50942H35.336V9.73815H31.7107V16.9815C31.7107 17.8173 31.8669 18.4581 32.1793 18.9038C32.501 19.3403 33.0294 19.5585 33.7645 19.5585C33.9943 19.5585 34.247 19.5214 34.5227 19.4471C34.7984 19.3728 35.0419 19.2938 35.2533 19.2103L35.7633 21.2719C35.3773 21.3926 34.9546 21.5087 34.4951 21.6201C34.0448 21.7315 33.5762 21.7872 33.0891 21.7872Z" fill="white"/>
<path d="M39.7607 4.82101C39.2461 4.82101 38.8188 4.66778 38.4788 4.36133C38.1388 4.05488 37.9688 3.65556 37.9688 3.16339C37.9688 2.66192 38.1388 2.25796 38.4788 1.95151C38.8188 1.64506 39.2461 1.49184 39.7607 1.49184C40.257 1.49184 40.6751 1.64506 41.0151 1.95151C41.3643 2.25796 41.5389 2.66192 41.5389 3.16339C41.5389 3.65556 41.3643 4.05488 41.0151 4.36133C40.6751 4.66778 40.257 4.82101 39.7607 4.82101ZM38.3685 21.439V7.50942H41.0978V21.439H38.3685Z" fill="white"/>
<path d="M45.9775 21.439V9.73815H44.1028V7.66264L45.9775 7.52335V5.61499C45.9775 4.1756 46.3175 3.02409 46.9975 2.16046C47.6776 1.28753 48.7573 0.851074 50.2369 0.851074C50.6964 0.851074 51.1329 0.902149 51.5464 1.0043C51.9691 1.09716 52.3367 1.20396 52.6491 1.32468L52.084 3.40019C51.5418 3.1866 51.0318 3.07981 50.5539 3.07981C49.3225 3.07981 48.7068 3.91558 48.7068 5.58713V7.50942H51.5188V9.73815H48.7068V21.439H45.9775Z" fill="white"/>
<path d="M57.6253 21.7872C56.3847 21.7872 55.3784 21.4204 54.6065 20.6868C53.8346 19.9532 53.4486 18.9688 53.4486 17.7337C53.4486 16.2293 54.1057 15.0407 55.4198 14.1678C56.7339 13.2948 58.8475 12.7841 61.7606 12.6355C61.7606 11.6233 61.5676 10.8339 61.1817 10.2675C60.8049 9.70101 60.0927 9.41777 59.0451 9.41777C58.2915 9.41777 57.5656 9.53849 56.8672 9.77994C56.1779 10.0121 55.5485 10.3139 54.9787 10.6854L53.9311 8.80487C54.6203 8.36841 55.4474 7.98767 56.4123 7.66264C57.3864 7.32833 58.4248 7.16118 59.5275 7.16118C61.2552 7.16118 62.5142 7.66729 63.3045 8.6795C64.0948 9.69172 64.4899 11.1404 64.4899 13.0255V21.439H62.2431L62.0087 19.8371H61.9398C61.2965 20.3757 60.6487 20.8354 59.9962 21.2161C59.3437 21.5969 58.5534 21.7872 57.6253 21.7872ZM58.4248 19.5864C59.0405 19.5864 59.6057 19.4378 60.1203 19.1406C60.6349 18.8435 61.1817 18.4256 61.7606 17.887V14.3488C60.3087 14.4138 59.1691 14.5996 58.3421 14.906C57.5242 15.2125 56.9453 15.5979 56.6053 16.0622C56.2744 16.5172 56.109 17.014 56.109 17.5527C56.109 18.2584 56.3204 18.7738 56.7431 19.0988C57.175 19.4239 57.7356 19.5864 58.4248 19.5864Z" fill="white"/>
<path d="M74.2217 21.7872C72.9903 21.7872 71.8829 21.5087 70.8997 20.9515C69.9164 20.385 69.1398 19.5585 68.5701 18.472C68.0003 17.3855 67.7155 16.0483 67.7155 14.4603C67.7155 12.8537 68.0233 11.5119 68.639 10.4346C69.2639 9.34812 70.0864 8.53092 71.1064 7.98302C72.1265 7.43513 73.2384 7.16118 74.4422 7.16118C75.3336 7.16118 76.1193 7.31905 76.7994 7.63478C77.4794 7.94123 78.0491 8.32198 78.5086 8.77701L77.1853 10.5321C76.7902 10.1885 76.3766 9.91924 75.9447 9.72422C75.522 9.52921 75.0625 9.4317 74.5663 9.4317C73.3808 9.4317 72.4113 9.87745 71.6578 10.7689C70.9042 11.6604 70.5275 12.8909 70.5275 14.4603C70.5275 16.0204 70.8905 17.2508 71.6164 18.1516C72.3516 19.0524 73.3073 19.5028 74.4836 19.5028C75.1085 19.5028 75.669 19.3914 76.1653 19.1685C76.6615 18.9456 77.1072 18.6577 77.5024 18.3048L78.674 20.1018C78.04 20.6682 77.3415 21.0908 76.5788 21.3694C75.8161 21.6479 75.0304 21.7872 74.2217 21.7872Z" fill="white"/>
<path d="M86.2141 21.7872C84.6886 21.7872 83.618 21.3415 83.0023 20.45C82.3958 19.5585 82.0926 18.3931 82.0926 16.9537V9.73815H80.08V7.66264L82.2166 7.50942L82.5474 3.65092H84.8357V7.50942H88.4609V9.73815H84.8357V16.9815C84.8357 17.8173 84.9919 18.4581 85.3043 18.9038C85.626 19.3403 86.1544 19.5585 86.8895 19.5585C87.1193 19.5585 87.372 19.5214 87.6477 19.4471C87.9234 19.3728 88.1669 19.2938 88.3782 19.2103L88.8883 21.2719C88.5023 21.3926 88.0796 21.5087 87.6201 21.6201C87.1698 21.7315 86.7011 21.7872 86.2141 21.7872Z" fill="white"/>
<path d="M95.5461 21.7872C94.039 21.7872 92.9547 21.3229 92.293 20.3943C91.6405 19.4564 91.3143 18.1005 91.3143 16.3268V7.50942H94.0574V15.9647C94.0574 17.1998 94.2366 18.082 94.595 18.6113C94.9534 19.1406 95.5737 19.4053 96.4559 19.4053C97.1543 19.4053 97.747 19.2335 98.2341 18.8899C98.7211 18.5463 99.2633 17.9938 99.8606 17.2323V7.50942H102.604V21.439H100.343L100.136 19.3217H100.04C99.4149 20.0646 98.7579 20.6636 98.0687 21.1186C97.3794 21.5644 96.5386 21.7872 95.5461 21.7872Z" fill="white"/>
<path d="M107.015 21.439V7.50942H109.262L109.482 9.45956H109.592C110.181 8.82808 110.828 8.28947 111.536 7.84373C112.244 7.38869 113.016 7.16118 113.852 7.16118C114.927 7.16118 115.754 7.37941 116.333 7.81587C116.912 8.24304 117.344 8.87452 117.629 9.71029C118.327 8.95809 119.035 8.34519 119.751 7.87159C120.477 7.39798 121.268 7.16118 122.122 7.16118C123.602 7.16118 124.673 7.6255 125.334 8.55414C126.005 9.48278 126.34 10.8339 126.34 12.6076V21.439H123.625V12.9698C123.625 11.7347 123.441 10.8572 123.074 10.3371C122.706 9.8078 122.104 9.54314 121.268 9.54314C120.284 9.54314 119.214 10.1839 118.056 11.4654V21.439H115.313V12.928C115.313 11.6929 115.129 10.82 114.762 10.3093C114.403 9.79851 113.801 9.54314 112.956 9.54314C112 9.54314 110.929 10.1978 109.744 11.5072V21.439H107.015Z" fill="white"/>
</svg>
