<svg width="40" height="41" viewBox="0 0 40 41" fill="none" xmlns="http://www.w3.org/2000/svg">
<path d="M34.3523 17.3541C34.3535 22.3677 32.2254 26.9848 28.7294 30.1961C24.8971 33.7163 20.2164 36.5533 17.4861 41C14.8194 36.6848 10.2194 34.0125 6.31828 30.7959C3.24478 28.2617 1.06783 24.676 0.300142 20.5774C-0.967412 13.81 1.84705 6.9259 7.47221 3.03465C13.0974 -0.856609 20.4682 -1.01826 26.2552 2.62271L21.3759 9.59889C20.0919 8.87681 18.6462 8.49888 17.1766 8.50112C12.3369 8.50112 8.41348 12.4648 8.41348 17.3541C8.41348 22.2435 12.3369 26.2072 17.1766 26.2072C22.0163 26.2072 25.9397 22.2435 25.9397 17.3541V13.4588H21.7334C21.4735 13.4607 21.2344 13.3152 21.1146 13.0821C20.9948 12.849 21.0145 12.5677 21.1656 12.354L22.5537 10.3709L27.4119 3.42303L29.5992 0.292598C29.7313 0.109041 29.9424 0.000437045 30.1671 0.000437045C30.3917 0.000437045 30.6028 0.109041 30.7349 0.292598L39.1265 12.354C39.2776 12.5677 39.2973 12.849 39.1775 13.0821C39.0577 13.3152 38.8186 13.4607 38.5586 13.4588H34.3523V17.3541Z" fill="#F16063"/>
<path d="M34.3523 17.3541C34.3535 22.3677 32.2254 26.9848 28.7294 30.1961C24.8971 33.7163 20.2164 36.5533 17.4861 41C14.8194 36.6848 10.2194 34.0125 6.31828 30.7959C3.24478 28.2617 1.06783 24.676 0.300142 20.5774C-0.967412 13.81 1.84705 6.9259 7.47221 3.03465C13.0974 -0.856609 20.4682 -1.01826 26.2552 2.62271L21.3759 9.59889C20.0919 8.87681 18.6462 8.49888 17.1766 8.50112C12.3369 8.50112 8.41348 12.4648 8.41348 17.3541C8.41348 22.2435 12.3369 26.2072 17.1766 26.2072C22.0163 26.2072 25.9397 22.2435 25.9397 17.3541V13.4588H21.7334C21.4735 13.4607 21.2344 13.3152 21.1146 13.0821C20.9948 12.849 21.0145 12.5677 21.1656 12.354L22.5537 10.3709L27.4119 3.42303L29.5992 0.292598C29.7313 0.109041 29.9424 0.000437045 30.1671 0.000437045C30.3917 0.000437045 30.6028 0.109041 30.7349 0.292598L39.1265 12.354C39.2776 12.5677 39.2973 12.849 39.1775 13.0821C39.0577 13.3152 38.8186 13.4607 38.5586 13.4588H34.3523V17.3541Z" fill="url(#paint0_diamond)"/>
<defs>
<radialGradient id="paint0_diamond" cx="0" cy="0" r="1" gradientUnits="userSpaceOnUse" gradientTransform="translate(31.0719 3.84375) rotate(112.486) scale(38.1337 16.8475)">
<stop stop-color="#E39D4F"/>
<stop offset="1" stop-color="#D65561"/>
</radialGradient>
</defs>
</svg>
