<svg width="45" height="45" viewBox="0 0 45 45" fill="none" xmlns="http://www.w3.org/2000/svg">
<path d="M22.5001 0C13.5137 0 6.20276 7.31092 6.20276 16.2972C6.20276 27.4495 20.7872 43.8217 21.4082 44.5132C21.9914 45.1628 23.0097 45.1616 23.5919 44.5132C24.2129 43.8217 38.7973 27.4495 38.7973 16.2972C38.7972 7.31092 31.4863 0 22.5001 0ZM22.5001 24.4968C17.9788 24.4968 14.3006 20.8185 14.3006 16.2972C14.3006 11.7759 17.9789 8.09772 22.5001 8.09772C27.0212 8.09772 30.6995 11.776 30.6995 16.2973C30.6995 20.8186 27.0212 24.4968 22.5001 24.4968Z" fill="#5D58B7"/>
</svg>
