<svg width="15" height="15" viewBox="0 0 15 15" fill="none" xmlns="http://www.w3.org/2000/svg">
<path d="M8.87423 7.51233L14.7149 1.67144C15.095 1.29152 15.095 0.677229 14.7149 0.297304C14.335 -0.0826217 13.7207 -0.0826217 13.3408 0.297304L7.49992 6.13819L1.65921 0.297304C1.27911 -0.0826217 0.665002 -0.0826217 0.285077 0.297304C-0.0950257 0.677229 -0.0950257 1.29152 0.285077 1.67144L6.12578 7.51233L0.285077 13.3532C-0.0950257 13.7331 -0.0950257 14.3474 0.285077 14.7273C0.474417 14.9169 0.72337 15.0121 0.972145 15.0121C1.22092 15.0121 1.4697 14.9169 1.65921 14.7273L7.49992 8.88646L13.3408 14.7273C13.5303 14.9169 13.7791 15.0121 14.0279 15.0121C14.2766 15.0121 14.5254 14.9169 14.7149 14.7273C15.095 14.3474 15.095 13.7331 14.7149 13.3532L8.87423 7.51233Z" fill="white"/>
</svg>
