<svg version="1.1" xmlns="http://www.w3.org/2000/svg" xmlns:xlink="http://www.w3.org/1999/xlink">
    <symbol viewBox="0 0 16 16" id="users-icon-menu">
        <path d="M13.6903 8.54126H12.4529C12.5791 8.88657 12.648 9.25923 12.648 9.64764V14.3242C12.648 14.4861 12.6198 14.6416 12.5685 14.7861H14.6142C15.3783 14.7861 16 14.1645 16 13.4003V10.8509C16 9.57739 14.9639 8.54126 13.6903 8.54126Z" /><path d="M3.35204 9.64764C3.35204 9.2592 3.42094 8.88657 3.54707 8.54126H2.30969C1.03613 8.54126 0 9.57739 0 10.851V13.4004C0 14.1645 0.621657 14.7862 1.38582 14.7862H3.43151C3.38023 14.6416 3.35204 14.4861 3.35204 14.3242V9.64764Z" /><path d="M9.41445 7.33801H6.58563C5.31207 7.33801 4.27594 8.37414 4.27594 9.64771V14.3243C4.27594 14.5794 4.48275 14.7862 4.73788 14.7862H11.2622C11.5173 14.7862 11.7241 14.5794 11.7241 14.3243V9.64771C11.7241 8.37414 10.688 7.33801 9.41445 7.33801Z" /><path d="M7.99998 1.21381C6.46835 1.21381 5.22229 2.45987 5.22229 3.99153C5.22229 5.03044 5.7957 5.93778 6.64251 6.41416C7.04417 6.6401 7.50723 6.76922 7.99998 6.76922C8.49273 6.76922 8.9558 6.6401 9.35745 6.41416C10.2043 5.93778 10.7777 5.03041 10.7777 3.99153C10.7777 2.4599 9.53161 1.21381 7.99998 1.21381Z" /><path d="M3.12245 3.8028C1.97698 3.8028 1.0451 4.73467 1.0451 5.88014C1.0451 7.02562 1.97698 7.95749 3.12245 7.95749C3.41302 7.95749 3.6897 7.89731 3.94105 7.78912C4.37561 7.60202 4.73392 7.27083 4.95564 6.85599C5.11127 6.56483 5.1998 6.23268 5.1998 5.88014C5.1998 4.7347 4.26792 3.8028 3.12245 3.8028Z" /><path d="M12.8776 3.8028C11.7321 3.8028 10.8002 4.73467 10.8002 5.88014C10.8002 6.23271 10.8888 6.56486 11.0444 6.85599C11.2661 7.27087 11.6244 7.60205 12.059 7.78912C12.3103 7.89731 12.587 7.95749 12.8776 7.95749C14.023 7.95749 14.9549 7.02562 14.9549 5.88014C14.9549 4.73467 14.023 3.8028 12.8776 3.8028Z" />
    </symbol>

    <symbol viewBox="0 0 16 16" id="ways-icon-menu">
        <g clip-path="url(#clip0)">
        <path d="M13.7397 15.059L7.44667 11.727C7.28267 11.64 7.08267 11.652 6.92767 11.757L2.11567 15.089C1.93567 15.214 1.85767 15.441 1.92367 15.65C1.98767 15.857 2.18167 16 2.39967 16H13.5047C13.7337 16 13.9347 15.844 13.9897 15.62C14.0457 15.397 13.9417 15.166 13.7397 15.059Z" />
        <path d="M15.8456 14.109L14.3656 7.44596C14.3296 7.28296 14.2146 7.14995 14.0596 7.08895C13.9036 7.02795 13.7286 7.04895 13.5926 7.14295L8.77963 10.475C8.63563 10.575 8.55463 10.742 8.56563 10.915C8.57563 11.09 8.67663 11.246 8.83063 11.327L15.1226 14.659C15.1966 14.698 15.2766 14.718 15.3566 14.718C15.4636 14.718 15.5706 14.684 15.6596 14.615C15.8146 14.497 15.8876 14.3 15.8456 14.109Z" />
        <path d="M12.3637 6.351C12.2977 6.142 12.1047 6 11.8857 6H7.32168C6.49168 7.503 5.26368 8.94 4.75868 9.502C4.47468 9.818 4.06768 10 3.64268 10C3.21768 10 2.81068 9.818 2.52668 9.502C2.33168 9.285 2.02969 8.938 1.68369 8.508L0.473686 13.954C0.429686 14.155 0.512686 14.362 0.682686 14.477C0.766686 14.534 0.864686 14.562 0.961686 14.562C1.06169 14.562 1.16069 14.533 1.24669 14.473L12.1697 6.91C12.3507 6.787 12.4277 6.56 12.3637 6.351Z" />
        <path d="M3.64264 0C1.71264 0 0.142639 1.57 0.142639 3.5C0.142639 5.296 2.95064 8.477 3.27064 8.834C3.36564 8.939 3.50064 9 3.64264 9C3.78464 9 3.91964 8.939 4.01464 8.834C4.33464 8.477 7.14264 5.296 7.14264 3.5C7.14264 1.57 5.57264 0 3.64264 0ZM3.64264 5C2.81464 5 2.14264 4.328 2.14264 3.5C2.14264 2.672 2.81464 2 3.64264 2C4.47064 2 5.14264 2.672 5.14264 3.5C5.14264 4.328 4.47064 5 3.64264 5Z" />
        </g>
        <defs>
        <clipPath id="clip0">
        <rect width="16" height="16" fill="white"/>
        </clipPath>
        </defs>
    </symbol>

    <symbol viewBox="0 0 16 16" id="quest-icon-menu">
        <path d="M10.9544 1.03749C11.1982 1.07849 12.6392 1.31859 12.7373 1.3349V0H3.26276V2.26541C4.30897 2.43978 3.96425 2.38234 4.93084 2.54337C8.42197 1.67059 10.0179 1.27247 10.9544 1.03749Z" />
        <path d="M5.23578 12.9069C5.0077 12.964 5.09554 12.9631 4.85272 12.9223C4.04205 12.7871 4.39687 12.8464 3.26276 12.6572V15.9999H12.7373V11.7267C11.691 11.5523 12.0358 11.6097 11.0692 11.4487L5.23578 12.9069ZM9.50589 14.5568H6.49413V13.6156H9.50589V14.5568Z" />
        <path d="M2.70933 7.38825C3.46133 6.7197 3.04157 7.09304 4.51765 5.78072C4.51765 5.41112 4.51765 4.01931 4.51765 3.42872C3.79696 3.30863 1.02494 2.84686 0 2.67578V5.28096C1.64245 6.55817 -0.588926 4.82276 2.70933 7.38825Z" />
        <path d="M15.3299 2.72099C15.305 2.71657 15.4573 2.59848 13.3004 4.4217L13.8704 6.70311C16.2049 6.26455 14.1794 6.64482 16 6.30374C16 5.98612 16 3.2793 16 2.83268L15.3299 2.72099Z" />
        <path d="M4.51765 11.9124C4.51765 11.4459 4.51765 7.59042 4.51765 7.03992C3.06322 8.33279 3.44063 7.99741 2.74949 8.61169C0.794573 7.09065 1.85412 7.91553 0 6.47302V11.1595C2.47413 11.5715 4.37688 11.8891 4.51765 11.9124Z" />
        <path d="M7.56082 2.80127L5.46482 3.38009C5.45525 3.3826 5.45886 3.12362 5.45886 8.19107L7.56082 6.41131C7.56082 6.08849 7.56082 3.16027 7.56082 2.80127Z" />
        <path d="M10.5384 2.11173L8.50195 2.566V6.35674L10.5412 7.91094C10.5412 1.80239 10.5428 2.11075 10.5384 2.11173Z" />
        <path d="M5.4588 11.8811C5.46269 11.8802 10.5378 10.6114 10.5412 10.6106C10.5412 10.2555 10.5412 9.37065 10.5412 9.01589L8.02351 7.26843L5.4588 9.46326V11.8811Z" />
        <path d="M13.7672 7.67962C13.6116 7.85593 11.2477 10.527 11.264 10.527C11.2676 10.527 15.5377 11.2392 16 11.3163C16 10.8483 16 7.78186 16 7.26111C15.4223 7.36934 15.6403 7.32878 13.7672 7.67962Z" />
        <path d="M11.4824 8.84708C12.9594 7.17326 12.6529 7.52062 13.0052 7.12127C12.6713 5.78578 12.7889 6.25605 12.4995 5.099L11.4824 5.95955V8.84708Z" />
        <path d="M11.4824 2.07971V4.72693C13.1642 3.30371 13.4395 3.07168 14.0966 2.51548C11.3242 2.0537 12.2093 2.20025 11.4824 2.07971Z" />
    </symbol>

    <symbol viewBox="0 0 16 16" id="artifacts-icon-menu">
        <path d="M9.7911 7.5509C9.58303 8.34553 8.85897 8.93362 7.99997 8.93362C7.14097 8.93362 6.41691 8.34556 6.20885 7.5509H3.17175V13.6197H12.8282V7.5509H9.7911Z" />
        <path d="M8 6.16821C7.49594 6.16821 7.08588 6.57828 7.08588 7.08234C7.08588 7.58637 7.49594 7.99643 8 7.99643C8.50406 7.99643 8.91413 7.58634 8.91413 7.08234C8.91413 6.57828 8.50406 6.16821 8 6.16821Z" />
        <path d="M13.7654 2.42102V6.61377H16V5.08349C16 3.75271 15.0334 2.64358 13.7654 2.42102Z" />
        <path d="M0 5.08349V6.61377H2.23456V2.42102C0.966625 2.64358 0 3.75271 0 5.08349Z" />
        <path d="M3.17175 2.38025V6.61375H6.20885C6.41691 5.81909 7.14097 5.231 7.99997 5.231C8.85897 5.231 9.58303 5.81906 9.7911 6.61375H12.8282V2.38025H3.17175Z" />
        <path d="M13.7654 7.55103V13.6198H15.322C15.6959 13.6198 16 13.3157 16 12.9418V7.55103H13.7654Z" />
        <path d="M0 7.55103V12.9418C0 13.3156 0.304156 13.6198 0.678031 13.6198H2.23456V7.55103H0Z" />
    </symbol>

    <symbol viewBox="0 0 17 17" id="dots-icon-menu">
        <path d="M0.99367 14.1346C0.99367 13.5127 1.49962 13.0067 2.12151 13.0067H14.826C15.9958 13.0067 16.9475 12.055 16.9475 10.8852V10.8272C16.9475 9.65739 15.9958 8.70569 14.826 8.70569H5.81456V9.69936H14.8259C15.4478 9.69936 15.9538 10.2053 15.9538 10.8272V10.8852C15.9538 11.5071 15.4478 12.0131 14.8259 12.0131H2.12151C0.951701 12.0131 0 12.9648 0 14.1346C0 15.3043 0.951701 16.2561 2.12151 16.2561H13.3408V15.2624H2.12151C1.49962 15.2624 0.99367 14.7565 0.99367 14.1346Z" />
        <path d="M15.6289 17C16.3861 17 17 16.3861 17 15.6288C17 14.8716 16.3861 14.2577 15.6289 14.2577C14.8716 14.2577 14.2578 14.8716 14.2578 15.6288C14.2578 16.3861 14.8716 17 15.6289 17Z" />
        <path d="M3.72293 9.50632C3.72293 9.50632 4.89235 8.53144 5.71914 7.5298C6.86491 6.14168 7.44587 4.86087 7.44587 3.72293C7.44583 1.67008 5.77575 0 3.72293 0C1.67012 0 0 1.67008 0 3.72293C0 4.86087 0.580955 6.14168 1.72673 7.5298C2.55352 8.53144 3.72293 9.50632 3.72293 9.50632ZM3.72293 2.00793C4.66859 2.00793 5.43794 2.77728 5.43794 3.72293C5.43794 4.66859 4.66859 5.43794 3.72293 5.43794C2.77728 5.43794 2.00793 4.66859 2.00793 3.72293C2.00793 2.77728 2.77728 2.00793 3.72293 2.00793Z" />
        <path d="M3.88882 4.42299C4.27646 4.33136 4.51643 3.94284 4.4248 3.55521C4.33317 3.16758 3.94465 2.92763 3.557 3.01926C3.16935 3.1109 2.92938 3.49942 3.02101 3.88705C3.11264 4.27467 3.50117 4.51463 3.88882 4.42299Z" />
    </symbol>

    <symbol viewBox="0 0 16 16" id="stock-icon-menu">
        <g clip-path="url(#clip0)">
        <path d="M14.9565 3.11648H13.7919C13.9455 2.87335 14.0469 2.60045 14.0758 2.31182C14.1681 1.38941 13.6823 0.56254 12.8553 0.195946C12.0951 -0.141023 11.2408 -0.00327259 10.6257 0.554665L9.15506 1.88748C8.86866 1.57423 8.45694 1.37735 8 1.37735C7.54225 1.37735 7.12988 1.57485 6.84341 1.88907L5.37091 0.554509C4.75475 -0.00342881 3.90081 -0.140648 3.14097 0.196134C2.31416 0.562759 1.82828 1.38991 1.92091 2.31229C1.94987 2.6007 2.05119 2.87348 2.20478 3.11648H1.04347C0.467156 3.11648 0 3.58366 0 4.15995V5.72516C0 6.01329 0.233594 6.24691 0.52175 6.24691H15.4783C15.7664 6.24691 16 6.01332 16 5.72516V4.15995C16 3.58366 15.5328 3.11648 14.9565 3.11648ZM6.43478 2.94257V3.11648H3.98031C3.33181 3.11648 2.82144 2.51191 2.98341 1.83673C3.05475 1.53938 3.26937 1.28591 3.54697 1.1576C3.92816 0.981415 4.35041 1.03798 4.67056 1.32776L6.43522 2.9272C6.43512 2.93235 6.43478 2.93741 6.43478 2.94257ZM13.0404 2.17329C13.0016 2.71557 12.5117 3.11654 11.9681 3.11654H9.56522V2.94263C9.56522 2.93648 9.56484 2.93038 9.56478 2.92423C9.96453 2.56185 10.8317 1.77585 11.3021 1.34951C11.5694 1.10723 11.9434 0.994134 12.2892 1.09726C12.7853 1.24526 13.0767 1.6672 13.0404 2.17329Z" />
        <path d="M1.04346 7.29028V14.9425C1.04346 15.5188 1.51061 15.9859 2.08693 15.9859H6.95649V7.29028H1.04346Z" />
        <path d="M9.04346 7.29028V15.9859H13.913C14.4893 15.9859 14.9565 15.5188 14.9565 14.9425V7.29028H9.04346Z" />
        </g>
        <defs>
        <clipPath id="clip0">
        <rect width="16" height="16" fill="white"/>
        </clipPath>
        </defs>
    </symbol>

    <symbol viewBox="0 0 12 12" id="icon-input-name">
        <g clip-path="url(#clip0)">
        <path d="M5.99992 6.00007C6.82827 6.00007 7.53528 5.707 8.12115 5.1211C8.70708 4.5352 9.00009 3.82819 9.00009 2.99995C9.00009 2.17185 8.70708 1.46481 8.12115 0.878776C7.53509 0.292905 6.82805 -3.05176e-05 5.99992 -3.05176e-05C5.17179 -3.05176e-05 4.46464 0.292905 3.87877 0.878776C3.29279 1.46481 2.9998 2.17182 2.9998 2.99995C2.9998 3.82819 3.29279 4.5352 3.87877 5.1211C4.46481 5.707 5.17177 6.00007 5.99992 6.00007Z" />
        <path d="M11.4726 9.16803C11.4543 8.90508 11.4178 8.62115 11.3632 8.31642C11.3085 8.01169 11.2394 7.72926 11.1561 7.46873C11.0727 7.20838 10.9607 6.95444 10.8201 6.70701C10.6795 6.45961 10.5181 6.24872 10.3357 6.07416C10.1532 5.89966 9.93064 5.76043 9.6678 5.65628C9.40464 5.55216 9.11425 5.5 8.79652 5.5C8.7497 5.5 8.6403 5.55599 8.4684 5.66799C8.29666 5.77999 8.10262 5.90502 7.88647 6.0431C7.67034 6.18093 7.38893 6.30604 7.04272 6.41785C6.69634 6.52986 6.34873 6.58587 5.99964 6.58587C5.65069 6.58587 5.30305 6.52986 4.95673 6.41785C4.61044 6.30604 4.3291 6.18093 4.11295 6.0431C3.89683 5.90502 3.70284 5.78002 3.53099 5.66799C3.35906 5.55599 3.24974 5.5 3.20287 5.5C2.88517 5.5 2.59478 5.55216 2.33178 5.65628C2.06873 5.76043 1.84609 5.89977 1.66376 6.07416C1.48149 6.24872 1.32001 6.45961 1.17944 6.70701C1.03887 6.95444 0.926894 7.20849 0.843542 7.46873C0.760217 7.72926 0.691177 8.01169 0.636503 8.31642C0.581774 8.62115 0.545325 8.90489 0.527073 9.16803C0.508848 9.43116 0.499763 9.7007 0.499763 9.97675C0.499763 10.6016 0.689918 11.0953 1.07009 11.4573C1.45035 11.8191 1.9556 12 2.5858 12H9.41411C10.0443 12 10.5495 11.8191 10.9298 11.4573C11.3102 11.0953 11.5002 10.6017 11.5002 9.97675C11.5001 9.7007 11.491 9.43116 11.4726 9.16803Z" />
        </g>
        <defs>
        <clipPath id="clip0">
        <rect width="12.0001" height="12.0001" fill="white" transform="translate(-0.00012207)"/>
        </clipPath>
        </defs>
    </symbol>

    <symbol viewBox="0 0 12 12" id="icon-input-password">
        <g clip-path="url(#clip0)">
        <path d="M10.87 1.13038C9.36212 -0.377501 6.90874 -0.377478 5.40086 1.1304C4.37089 2.16037 4.01314 3.67821 4.45911 5.05529L0.103886 9.41054C0.0379557 9.47647 0.00087738 9.56572 0.00087738 9.65912V11.648C0.00087738 11.8423 0.15812 11.9996 0.352442 11.9996H2.34131C2.43469 11.9996 2.52396 11.9625 2.58987 11.8965L3.087 11.3991C3.16287 11.3232 3.19995 11.2168 3.1876 11.11L3.12579 10.5758L3.866 10.5061C4.03423 10.4903 4.1671 10.3574 4.1829 10.1892L4.2526 9.44895L4.78682 9.51109C4.88603 9.52447 4.98594 9.49117 5.06113 9.42458C5.13597 9.35764 5.17888 9.26218 5.17888 9.16194V8.50735H5.82159C5.91496 8.50735 6.00424 8.47027 6.07014 8.40434L6.97172 7.5147C8.34844 7.96102 9.84004 7.63022 10.87 6.59955C12.3779 5.09169 12.3779 2.63826 10.87 1.13038ZM9.87543 3.61641C9.46412 4.02772 8.79533 4.02772 8.38402 3.61641C7.97272 3.2051 7.97272 2.53631 8.38402 2.125C8.79533 1.7137 9.46412 1.7137 9.87543 2.125C10.2867 2.53631 10.2867 3.2051 9.87543 3.61641Z" />
        </g>
        <defs>
        <clipPath id="clip0">
        <rect width="12.0001" height="12.0001" fill="white" transform="translate(-0.00012207)"/>
        </clipPath>
        </defs>
    </symbol>

    <symbol viewBox="0 0 24 24" id="map-route-edit-icon">
        <path d="M14.078 4.232l-12.64 12.639-1.438 7.129 7.127-1.438 12.641-12.64-5.69-5.69zm-10.369 14.893l-.85-.85 11.141-11.125.849.849-11.14 11.126zm2.008 2.008l-.85-.85 11.141-11.125.85.85-11.141 11.125zm18.283-15.444l-2.816 2.818-5.691-5.691 2.816-2.816 5.691 5.689z"/>
    </symbol>

    <symbol viewBox="0 0 24 24" id="createMapPoint">
        <path d="M9 19h-4v-2h4v2zm2.946-4.036l3.107 3.105-4.112.931 1.005-4.036zm12.054-5.839l-7.898 7.996-3.202-3.202 7.898-7.995 3.202 3.201zm-6 8.92v3.955h-16v-20h7.362c4.156 0 2.638 6 2.638 6s2.313-.635 4.067-.133l1.952-1.976c-2.214-2.807-5.762-5.891-7.83-5.891h-10.189v24h20v-7.98l-2 2.025z"/>
    </symbol>

    <symbol viewBox="0 0 24 24" id="transaction-icon">
        <path d="M22 2v20h-20v-20h20zm2-2h-24v24h24v-24zm-4 7h-8v1h8v-1zm0 5h-8v1h8v-1zm0 5h-8v1h8v-1zm-10.516-11.304l-.71-.696-2.553 2.607-1.539-1.452-.698.71 2.25 2.135 3.25-3.304zm0 5l-.71-.696-2.552 2.607-1.539-1.452-.698.709 2.249 2.136 3.25-3.304zm0 5l-.71-.696-2.552 2.607-1.539-1.452-.698.709 2.249 2.136 3.25-3.304z"/>
    </symbol>

</svg>