<svg version="1.1" xmlns="http://www.w3.org/2000/svg" xmlns:xlink="http://www.w3.org/1999/xlink">
    <symbol viewBox="0 0 15 15" id="nav-button-personal-area" width="15" height="15">
        <g clip-path="url(#clip0)"><path d="M7.39311 7.22557C8.38577 7.22557 9.24534 6.86954 9.94766 6.16711C10.65 5.46478 11.006 4.60545 11.006 3.61267C11.006 2.62024 10.65 1.76079 9.94755 1.05824C9.24511 0.356026 8.38566 0 7.39311 0C6.40034 0 5.541 0.356026 4.83868 1.05835C4.13635 1.76067 3.78021 2.62012 3.78021 3.61267C3.78021 4.60545 4.13635 5.4649 4.83879 6.16722C5.54123 6.86943 6.40068 7.22557 7.39311 7.22557Z"/><path d="M13.7147 11.5343C13.6945 11.242 13.6535 10.9232 13.5932 10.5865C13.5323 10.2473 13.4539 9.92661 13.3601 9.63353C13.2631 9.3306 13.1313 9.03146 12.9683 8.74478C12.7992 8.44724 12.6005 8.18814 12.3776 7.97494C12.1445 7.75189 11.8591 7.57256 11.529 7.44176C11.2001 7.31164 10.8356 7.24572 10.4457 7.24572C10.2926 7.24572 10.1445 7.30855 9.85851 7.49474C9.6825 7.60953 9.47662 7.74228 9.24683 7.88911C9.05033 8.01431 8.78414 8.13161 8.45535 8.23781C8.13457 8.34161 7.80888 8.39425 7.48741 8.39425C7.16595 8.39425 6.84036 8.34161 6.51924 8.23781C6.1908 8.13172 5.92461 8.01442 5.72834 7.88922C5.50072 7.74377 5.29472 7.61102 5.11608 7.49463C4.83044 7.30843 4.68224 7.24561 4.52911 7.24561C4.1391 7.24561 3.77472 7.31164 3.44593 7.44187C3.11611 7.57245 2.83058 7.75178 2.59724 7.97505C2.37442 8.18837 2.17564 8.44735 2.00672 8.74478C1.84387 9.03146 1.71204 9.33049 1.61499 9.63364C1.52126 9.92673 1.44287 10.2473 1.38199 10.5865C1.32168 10.9227 1.28071 11.2417 1.26045 11.5346C1.24054 11.8216 1.23047 12.1195 1.23047 12.4204C1.23047 13.2034 1.47938 13.8373 1.97021 14.3048C2.45499 14.7661 3.09643 15.0001 3.87646 15.0001H11.0991C11.8791 15.0001 12.5203 14.7662 13.0052 14.3048C13.4961 13.8376 13.745 13.2036 13.745 12.4203C13.7449 12.118 13.7347 11.8199 13.7147 11.5343Z"/></g><defs><clipPath id="clip0"><rect width="15" height="15.0001" /></clipPath></defs>
    </symbol>

    <symbol viewBox="0 0 15 15" id="nav-button-feedback">
        <g clip-path="url(#clip0)">
        <path
            d="M13.6606 13.393C13.9977 13.393 14.2899 13.2817 14.5383 13.0618L10.2885 8.81193C10.1866 8.88495 10.0877 8.95595 9.99437 9.02346C9.67634 9.25777 9.41822 9.44062 9.22001 9.57164C9.02183 9.70296 8.75816 9.83681 8.42902 9.97346C8.09966 10.1103 7.79282 10.1785 7.50818 10.1785H7.49984H7.49151C7.20684 10.1785 6.9 10.1103 6.57067 9.97346C6.24133 9.83681 5.97766 9.70296 5.77967 9.57164C5.58149 9.44062 5.32351 9.2578 5.00532 9.02346C4.91665 8.95845 4.81831 8.88713 4.71199 8.81079L0.461426 13.0618C0.709767 13.2817 1.00212 13.393 1.33927 13.393H13.6606Z"
        />
        <path
            d="M0.845514 6.13568C0.52751 5.92367 0.245509 5.68085 0 5.40735V11.8732L3.7457 8.12753C2.99635 7.60437 2.03085 6.94119 0.845514 6.13568Z"
        />
        <path
            d="M14.163 6.13568C13.0229 6.90736 12.0539 7.57169 11.2559 8.12902L15 11.8734V5.40735C14.76 5.67535 14.481 5.918 14.163 6.13568Z"
        />
        <path
            d="M13.6609 1.60718H1.33969C0.909839 1.60718 0.579361 1.75233 0.34785 2.04234C0.116149 2.33248 0.000488281 2.69534 0.000488281 3.1305C0.000488281 3.482 0.153976 3.86286 0.460814 4.27319C0.767653 4.68335 1.09415 5.00552 1.44015 5.23986C1.62984 5.37388 2.20185 5.77154 3.15619 6.43271C3.67136 6.78971 4.11938 7.10088 4.50437 7.3694C4.83254 7.59805 5.11555 7.79607 5.34921 7.96039C5.37603 7.97921 5.41822 8.00939 5.47421 8.04942C5.53453 8.09275 5.61087 8.14773 5.70504 8.21573C5.88639 8.34689 6.03704 8.45291 6.15703 8.5339C6.27686 8.61492 6.42204 8.70542 6.59236 8.80591C6.76254 8.90626 6.92305 8.98173 7.07371 9.03192C7.22439 9.08208 7.36388 9.10724 7.4922 9.10724H7.50054H7.50887C7.63717 9.10724 7.77668 9.08208 7.92739 9.03192C8.07802 8.98173 8.2384 8.90643 8.40872 8.80591C8.57887 8.70542 8.72386 8.61473 8.84407 8.5339C8.96406 8.45291 9.11472 8.34692 9.29609 8.21573C9.39007 8.14773 9.46641 8.09272 9.52673 8.04956C9.58275 8.00936 9.62491 7.97938 9.65189 7.96039C9.83392 7.83373 10.1176 7.63653 10.499 7.37172C11.1929 6.88955 12.2149 6.17988 13.5693 5.23986C13.9766 4.95536 14.3169 4.61203 14.5905 4.21036C14.8635 3.8087 15.0003 3.38737 15.0003 2.94651C15.0003 2.57818 14.8676 2.26301 14.6028 2.00051C14.3376 1.73833 14.0237 1.60718 13.6609 1.60718Z"
        />
        </g>
        <defs>
        <clipPath id="clip0"><rect width="15" height="15" /></clipPath>
        </defs>
    </symbol>

    <symbol viewBox="0 0 34 34" id="app-button">
        <path d="M20.2968 8.20329C20.182 7.77497 19.9073 7.41691 19.5233 7.19524C18.7307 6.73757 17.7133 7.01004 17.2555 7.80293L17 8.24546L16.7445 7.80286C16.2867 7.01017 15.2695 6.73757 14.4767 7.19518H14.4766C13.6839 7.65291 13.4113 8.67019 13.869 9.46302L15.083 11.5657L10.6036 19.3243H7.33789C6.42248 19.3243 5.67773 20.069 5.67773 20.9844C5.67773 21.8998 6.42248 22.6446 7.33789 22.6446H19.9458L18.0288 19.3243H14.4376L20.1309 9.46308C20.3527 9.07906 20.4116 8.63161 20.2968 8.20329Z" /><path d="M26.6621 19.3242H23.3964L19.6838 12.8938L17.7669 16.2141L23.5312 26.1981C23.7529 26.5822 24.1109 26.857 24.5393 26.9718C24.6824 27.0101 24.8275 27.0291 24.9717 27.0291C25.2594 27.0291 25.5433 26.9536 25.7992 26.8059C26.592 26.3482 26.8645 25.3308 26.4067 24.5381L25.3134 22.6445H26.6621C27.5776 22.6445 28.3223 21.8997 28.3223 20.9843C28.3223 20.0689 27.5776 19.3242 26.6621 19.3242Z" /><path d="M7.91985 23.9727L7.59333 24.5382C7.13566 25.3309 7.40826 26.3483 8.20101 26.8059C8.46179 26.9565 8.74681 27.0281 9.0283 27.028C9.60245 27.028 10.1617 26.7302 10.4689 26.1983L11.7538 23.9727H7.91985Z" />
    </symbol>

    <symbol viewBox="0 0 16 16" id="google-button">
        <g clip-path="url(#clip0)"><path d="M3.49223 0.255884C2.86626 -0.0900969 2.1313 -0.0820974 1.50934 0.260883L8.79893 6.9855L11.2478 4.53664L3.49223 0.255884Z" /><path d="M0.780411 0.94873C0.602421 1.23971 0.500427 1.5727 0.500427 1.92568V14.071C0.500427 14.413 0.593422 14.739 0.761412 15.0239L8.092 7.69335L0.780411 0.94873Z" /><path d="M14.4946 6.32848L12.1587 5.03955L9.53387 7.6634L12.7507 10.6302L14.4956 9.66729C15.1236 9.31931 15.4995 8.69534 15.4995 7.99738C15.4985 7.29942 15.1236 6.67546 14.4946 6.32848Z" /><path d="M8.82696 8.37134L1.47638 15.7219C1.79536 15.9039 2.14534 15.9999 2.49732 15.9999C2.8373 15.9999 3.17928 15.9139 3.49227 15.7409L11.8288 11.1402L8.82696 8.37134Z" /></g><defs><clipPath id="clip0"><rect width="16" height="16" /></clipPath></defs>
    </symbol>

    <symbol viewBox="0 0 12 12" id="facebook">
        <g clip-path="url(#clip0)"><path d="M7.99851 1.9925H9.09401V0.0845C8.90501 0.0585 8.25501 0 7.49801 0C5.91851 0 4.83651 0.9935 4.83651 2.8195V4.5H3.09351V6.633H4.83651V12H6.97351V6.6335H8.64601L8.91151 4.5005H6.97301V3.031C6.97351 2.4145 7.13951 1.9925 7.99851 1.9925Z" /></g><defs><clipPath id="clip0"><rect width="12" height="12" fill="white"/></clipPath></defs>
    </symbol>

    <symbol viewBox="0 0 12 12" id="twitter">
        <g clip-path="url(#clip0)"><path d="M12 2.27925C11.5538 2.475 11.0782 2.60475 10.5825 2.66775C11.0925 2.36325 11.4818 1.88475 11.6648 1.308C11.1892 1.5915 10.6642 1.79175 10.1047 1.9035C9.65325 1.42275 9.00975 1.125 8.30775 1.125C6.94575 1.125 5.84925 2.2305 5.84925 3.58575C5.84925 3.78075 5.86575 3.96825 5.90625 4.14675C3.861 4.047 2.05125 3.06675 0.8355 1.5735C0.62325 1.94175 0.49875 2.36325 0.49875 2.817C0.49875 3.669 0.9375 4.42425 1.5915 4.8615C1.19625 4.854 0.8085 4.73925 0.48 4.5585C0.48 4.566 0.48 4.57575 0.48 4.5855C0.48 5.781 1.33275 6.774 2.451 7.00275C2.25075 7.0575 2.0325 7.08375 1.806 7.08375C1.6485 7.08375 1.4895 7.07475 1.34025 7.04175C1.659 8.016 2.5635 8.73225 3.639 8.7555C2.802 9.41025 1.73925 9.80475 0.58875 9.80475C0.387 9.80475 0.1935 9.79575 0 9.771C1.08975 10.4738 2.38125 10.875 3.774 10.875C8.301 10.875 10.776 7.125 10.776 3.8745C10.776 3.76575 10.7723 3.66075 10.767 3.5565C11.2552 3.21 11.6655 2.77725 12 2.27925Z" /></g><defs><clipPath id="clip0"><rect width="12" height="12" fill="white"/></clipPath></defs>
    </symbol>

    <symbol viewBox="0 0 12 12" id="instagram">
        <path d="M8.75169 0H3.24828C1.45715 0 0 1.45715 0 3.24828V8.75178C0 10.5428 1.45715 12 3.24828 12H8.75178C10.5428 12 12 10.5428 12 8.75178V3.24828C12 1.45715 10.5428 0 8.75169 0V0ZM5.99999 9.28114C4.19073 9.28114 2.71884 7.80925 2.71884 5.99999C2.71884 4.19073 4.19073 2.71884 5.99999 2.71884C7.80925 2.71884 9.28114 4.19073 9.28114 5.99999C9.28114 7.80925 7.80925 9.28114 5.99999 9.28114ZM9.3596 3.49264C8.82493 3.49264 8.39006 3.05776 8.39006 2.5231C8.39006 1.98843 8.82493 1.55346 9.3596 1.55346C9.89427 1.55346 10.3292 1.98843 10.3292 2.5231C10.3292 3.05776 9.89427 3.49264 9.3596 3.49264Z" /><path d="M5.99999 3.4223C4.57873 3.4223 3.42233 4.57861 3.42233 5.99996C3.42233 7.42123 4.57873 8.57763 5.99999 8.57763C7.42135 8.57763 8.57766 7.42123 8.57766 5.99996C8.57766 4.57861 7.42135 3.4223 5.99999 3.4223Z" /><path d="M9.35959 2.25702C9.21292 2.25702 9.09354 2.3764 9.09354 2.52307C9.09354 2.66974 9.21292 2.78912 9.35959 2.78912C9.50635 2.78912 9.62573 2.66983 9.62573 2.52307C9.62573 2.37631 9.50635 2.25702 9.35959 2.25702Z" />
    </symbol>

    <symbol viewBox="0 0 15 15" id="btn-feedback-footer">
        <g clip-path="url(#clip0)"><path d="M13.6606 13.393C13.9977 13.393 14.2899 13.2817 14.5383 13.0618L10.2885 8.81193C10.1866 8.88495 10.0877 8.95595 9.99437 9.02346C9.67634 9.25777 9.41822 9.44062 9.22001 9.57164C9.02183 9.70296 8.75816 9.83681 8.42902 9.97346C8.09966 10.1103 7.79282 10.1785 7.50818 10.1785H7.49984H7.49151C7.20684 10.1785 6.9 10.1103 6.57067 9.97346C6.24133 9.83681 5.97766 9.70296 5.77967 9.57164C5.58149 9.44062 5.32351 9.2578 5.00532 9.02346C4.91665 8.95845 4.81831 8.88713 4.71199 8.81079L0.461426 13.0618C0.709767 13.2817 1.00212 13.393 1.33927 13.393H13.6606Z" /><path d="M0.845514 6.13568C0.52751 5.92367 0.245509 5.68085 0 5.40735V11.8732L3.7457 8.12753C2.99635 7.60437 2.03085 6.94119 0.845514 6.13568Z" /><path d="M14.163 6.13568C13.0229 6.90736 12.0539 7.57169 11.2559 8.12902L15 11.8734V5.40735C14.76 5.67535 14.481 5.918 14.163 6.13568Z" /><path d="M13.6609 1.60718H1.33969C0.909839 1.60718 0.579361 1.75233 0.34785 2.04234C0.116149 2.33248 0.000488281 2.69534 0.000488281 3.1305C0.000488281 3.482 0.153976 3.86286 0.460814 4.27319C0.767653 4.68335 1.09415 5.00552 1.44015 5.23986C1.62984 5.37388 2.20185 5.77154 3.15619 6.43271C3.67136 6.78971 4.11938 7.10088 4.50437 7.3694C4.83254 7.59805 5.11555 7.79607 5.34921 7.96039C5.37603 7.97921 5.41822 8.00939 5.47421 8.04942C5.53453 8.09275 5.61087 8.14773 5.70504 8.21573C5.88639 8.34689 6.03704 8.45291 6.15703 8.5339C6.27686 8.61492 6.42204 8.70542 6.59236 8.80591C6.76254 8.90626 6.92305 8.98173 7.07371 9.03192C7.22439 9.08208 7.36388 9.10724 7.4922 9.10724H7.50054H7.50887C7.63717 9.10724 7.77668 9.08208 7.92739 9.03192C8.07802 8.98173 8.2384 8.90643 8.40872 8.80591C8.57887 8.70542 8.72386 8.61473 8.84407 8.5339C8.96406 8.45291 9.11472 8.34692 9.29609 8.21573C9.39007 8.14773 9.46641 8.09272 9.52673 8.04956C9.58275 8.00936 9.62491 7.97938 9.65189 7.96039C9.83392 7.83373 10.1176 7.63653 10.499 7.37172C11.1929 6.88955 12.2149 6.17988 13.5693 5.23986C13.9766 4.95536 14.3169 4.61203 14.5905 4.21036C14.8635 3.8087 15.0003 3.38737 15.0003 2.94651C15.0003 2.57818 14.8676 2.26301 14.6028 2.00051C14.3376 1.73833 14.0237 1.60718 13.6609 1.60718Z" /></g><defs><clipPath id="clip0"><rect width="15" height="15" /></clipPath></defs>
    </symbol>

    <symbol viewBox="0 0 12 12" id="email-input-icon">
        <g clip-path="url(#clip0)"><path d="M1.15176 4.19213C1.30356 4.29925 1.76114 4.61738 2.52452 5.14638C3.28792 5.67538 3.87274 6.08269 4.27899 6.36834C4.32363 6.39966 4.41845 6.46772 4.56352 6.57263C4.70861 6.67762 4.82917 6.76245 4.9251 6.82716C5.0211 6.89185 5.13715 6.96442 5.27338 7.04475C5.40955 7.12501 5.53792 7.18539 5.65845 7.22535C5.77901 7.26565 5.89061 7.28561 5.99327 7.28561H6H6.00676C6.10942 7.28561 6.22106 7.26562 6.34162 7.22535C6.4621 7.18539 6.59059 7.12494 6.72665 7.04475C6.86278 6.96433 6.97883 6.89183 7.07483 6.82716C7.17083 6.76245 7.29129 6.67762 7.43643 6.57263C7.58148 6.46763 7.67642 6.39966 7.72105 6.36834C8.1317 6.08269 9.17644 5.35721 10.8549 4.19199C11.1808 3.96441 11.4531 3.6898 11.6718 3.36836C11.8907 3.04705 12 2.70998 12 2.35734C12 2.06266 11.8939 1.8104 11.6818 1.6006C11.4698 1.39075 11.2186 1.28589 10.9285 1.28589H1.07138C0.727657 1.28589 0.463135 1.40194 0.277867 1.63405C0.0926224 1.8662 0 2.15638 0 2.50457C0 2.78581 0.122808 3.09058 0.368308 3.41869C0.613784 3.74682 0.875022 4.00466 1.15176 4.19213Z" /><path d="M11.3303 4.90849C9.86614 5.89948 8.75439 6.66963 7.99557 7.2188C7.74111 7.40622 7.53468 7.55254 7.37615 7.65738C7.21762 7.76229 7.00679 7.86943 6.74335 7.97875C6.48 8.08824 6.23457 8.14282 6.00685 8.14282H6.00002H5.99329C5.76562 8.14282 5.52005 8.08824 5.2567 7.97875C4.99335 7.86943 4.78238 7.76229 4.62389 7.65738C4.46546 7.55254 4.25896 7.40622 4.00453 7.2188C3.40181 6.77687 2.29246 6.00666 0.676408 4.90849C0.421878 4.73896 0.196433 4.54464 0 4.32593V9.64274C0 9.93757 0.104866 10.1897 0.314714 10.3995C0.524516 10.6094 0.776794 10.7143 1.07145 10.7143H10.9286C11.2232 10.7143 11.4755 10.6094 11.6853 10.3995C11.8952 10.1896 12 9.93759 12 9.64274V4.32593C11.808 4.54012 11.5849 4.73444 11.3303 4.90849Z"  /></g><defs><clipPath id="clip0"><rect width="12" height="12" /></clipPath></defs>
    </symbol>

    <symbol viewBox="0 0 12 12" id="password-key-input">
        <g clip-path="url(#clip0)"><path d="M10.87 1.1304C9.36217 -0.377468 6.9088 -0.377445 5.40093 1.13043C4.37097 2.16039 4.01322 3.67822 4.45919 5.05529L0.103984 9.41051C0.0380547 9.47644 0.000976562 9.56569 0.000976562 9.65909V11.6479C0.000976562 11.8423 0.158219 11.9995 0.352539 11.9995H2.3414C2.43477 11.9995 2.52405 11.9624 2.58995 11.8965L3.08709 11.399C3.16295 11.3231 3.20003 11.2167 3.18768 11.1099L3.12587 10.5757L3.86608 10.506C4.03431 10.4902 4.16718 10.3574 4.18298 10.1891L4.25268 9.44893L4.78689 9.51106C4.8861 9.52444 4.98602 9.49114 5.0612 9.42455C5.13604 9.35761 5.17895 9.26215 5.17895 9.16191V8.50733H5.82166C5.91503 8.50733 6.0043 8.47025 6.07021 8.40432L6.97178 7.51468C8.3485 7.961 9.84009 7.6302 10.87 6.59954C12.3779 5.09169 12.3779 2.63828 10.87 1.1304ZM9.87548 3.61642C9.46417 4.02772 8.79538 4.02772 8.38408 3.61642C7.97277 3.20511 7.97277 2.53632 8.38408 2.12502C8.79538 1.71372 9.46417 1.71372 9.87548 2.12502C10.2868 2.53632 10.2868 3.20511 9.87548 3.61642Z" /></g><defs><clipPath id="clip0"><rect width="12" height="12" /></clipPath></defs>
    </symbol>

    <symbol viewBox="0 0 15 15" id="password-eye-show">
        <g clip-path="url(#clip0)"><path d="M7.50004 5.45459C6.37162 5.45459 5.45459 6.37162 5.45459 7.50004C5.45459 8.62845 6.37162 9.54549 7.50004 9.54549C8.62845 9.54549 9.54549 8.62845 9.54549 7.50004C9.54549 6.37162 8.62842 5.45459 7.50004 5.45459Z" /><path d="M7.50002 2.38647C4.09091 2.38647 1.17956 4.50691 0 7.50011C1.17956 10.4933 4.09091 12.6138 7.50002 12.6138C10.9125 12.6138 13.8205 10.4933 15 7.50011C13.8205 4.50691 10.9125 2.38647 7.50002 2.38647ZM7.50002 10.9092C5.6182 10.9092 4.09091 9.3819 4.09091 7.50008C4.09091 5.61826 5.6182 4.09101 7.50002 4.09101C9.38184 4.09101 10.9091 5.6183 10.9091 7.50011C10.9091 9.38193 9.38184 10.9092 7.50002 10.9092Z" /></g><defs><clipPath id="clip0"><rect width="15" height="15" /></clipPath></defs>   
    </symbol>

    <symbol viewBox="0 0 15 13" id="password-eye-hide">
        <path d="M7.38574 4.12448L9.53298 6.27172L9.54321 6.15925C9.54321 5.03108 8.62638 4.11426 7.49822 4.11426L7.38574 4.12448Z" /><path d="M7.49836 2.75078C9.37975 2.75078 10.9067 4.27771 10.9067 6.15911C10.9067 6.59878 10.8181 7.018 10.6647 7.40313L12.6586 9.397C13.6879 8.5381 14.499 7.427 15.0001 6.15911C13.8174 3.16661 10.9101 1.04663 7.49839 1.04663C6.54406 1.04663 5.63065 1.21704 4.78198 1.52378L6.25437 2.99276C6.63947 2.8428 7.05869 2.75078 7.49836 2.75078Z" /><path d="M0.681653 0.89329L2.23584 2.44748L2.54601 2.75765C1.42127 3.637 0.531697 4.80606 0 6.15914C1.17929 9.15163 4.08998 11.2716 7.49831 11.2716C8.5549 11.2716 9.56375 11.0671 10.4874 10.6956L10.7771 10.9853L12.7642 12.9758L13.6333 12.1101L1.55077 0.0241699L0.681653 0.89329ZM4.45127 4.65949L5.50444 5.71266C5.47377 5.85923 5.45332 6.00576 5.45332 6.15914C5.45332 7.2873 6.37014 8.20413 7.49831 8.20413C7.65168 8.20413 7.79825 8.18368 7.9414 8.153L8.99457 9.20617C8.54125 9.43112 8.03684 9.56746 7.49831 9.56746C5.61692 9.56746 4.08998 8.04053 4.08998 6.15914C4.08998 5.62064 4.22632 5.11619 4.45127 4.65949Z" />
    </symbol>
</svg>