<svg width="17" height="17" viewBox="0 0 17 17" fill="none" xmlns="http://www.w3.org/2000/svg">
<path d="M14.5107 2.48937C11.1912 -0.829768 5.80912 -0.830137 2.48925 2.48937C-0.83026 5.80888 -0.82989 11.191 2.48925 14.5108C5.80875 17.8296 11.1908 17.83 14.5107 14.5108C17.8299 11.191 17.8295 5.80925 14.5107 2.48937ZM9.60834 12.1958C9.60834 12.8082 9.112 13.3046 8.49962 13.3046C7.88723 13.3046 7.3909 12.8082 7.3909 12.1958V7.76096C7.3909 7.14858 7.88723 6.65224 8.49962 6.65224C9.112 6.65224 9.60834 7.14858 9.60834 7.76096V12.1958ZM8.48003 5.86579C7.84141 5.86579 7.41566 5.41343 7.42896 4.85501C7.41566 4.2696 7.84141 3.83092 8.49296 3.83092C9.14489 3.83092 9.55733 4.26997 9.57101 4.85501C9.57064 5.41343 9.14526 5.86579 8.48003 5.86579Z" fill="#FFB83A"/>
</svg>
