<svg width="23" height="23" viewBox="0 0 23 23" fill="none" xmlns="http://www.w3.org/2000/svg">
<g clip-path="url(#clip0)">
<path d="M21.3891 1.61085C21.74 1.96169 21.74 2.53058 21.3891 2.88142L21.1167 3.15387C21.4135 3.49523 21.6922 3.85276 21.9521 4.22431L22.3421 3.8343C23.2192 2.95715 23.2192 1.53502 22.3421 0.657875C21.4649 -0.219269 20.0427 -0.219314 19.1656 0.657875L18.7756 1.04784C19.1472 1.30776 19.5047 1.58641 19.8461 1.88325L20.1185 1.6108C20.4694 1.25996 21.0383 1.25996 21.3891 1.61085Z" fill="#9B97EC"/>
<path d="M11.4551 4.13281C7.36804 4.13281 4.04297 7.45788 4.04297 11.5449C4.04297 15.632 7.36804 18.957 11.4551 18.957C15.5421 18.957 18.8672 15.632 18.8672 11.5449C18.8672 7.45788 15.5422 4.13281 11.4551 4.13281ZM15.2535 8.62765L12.0771 16.2512C11.972 16.5034 11.7258 16.6658 11.4553 16.6658C11.4409 16.6658 11.4264 16.6654 11.4118 16.6644C11.1245 16.6459 10.8808 16.447 10.805 16.1693L9.95338 13.0467L6.83073 12.1951C6.55298 12.1193 6.35406 11.8755 6.3356 11.5883C6.31709 11.301 6.48312 11.0337 6.74884 10.923L14.3723 7.74655C14.6244 7.64153 14.9149 7.69903 15.108 7.8921C15.3011 8.08517 15.3586 8.37559 15.2535 8.62765Z" fill="#5D58B7"/>
<path d="M10.6793 11.8478C10.9095 11.9105 11.0893 12.0904 11.1521 12.3206L11.5883 13.92L13.38 9.61987L9.07983 11.4116L10.6793 11.8478Z" fill="#5D58B7"/>
<path d="M20.2151 11.5449C20.2151 13.718 19.4194 15.7085 18.1045 17.2412L20.0135 19.1502C21.8144 17.1258 22.9104 14.4612 22.9104 11.5449C22.9104 8.62869 21.8144 5.96406 20.0135 3.9397L18.1045 5.8487C19.4194 7.38134 20.2151 9.37188 20.2151 11.5449Z" fill="#9B97EC"/>
<path d="M11.4551 2.78516C13.6281 2.78516 15.6187 3.58086 17.1513 4.89577L19.0603 2.98677C17.0359 1.18585 14.3713 0.0898438 11.4551 0.0898438C8.53884 0.0898438 5.87421 1.18585 3.84985 2.98677L5.75885 4.89577C7.29154 3.58086 9.28203 2.78516 11.4551 2.78516Z" fill="#9B97EC"/>
<path d="M2.69531 11.5449C2.69531 9.37188 3.49101 7.38134 4.80592 5.8487L2.89692 3.9397C1.096 5.96406 0 8.62869 0 11.5449C0 14.4612 1.096 17.1258 2.89692 19.1502L4.80592 17.2412C3.49101 15.7085 2.69531 13.718 2.69531 11.5449Z" fill="#9B97EC"/>
<path d="M11.4551 20.3047C9.28203 20.3047 7.2915 19.509 5.75885 18.1941L3.84985 20.1031C5.87421 21.904 8.53884 23 11.4551 23C14.3713 23 17.0359 21.904 19.0603 20.1031L17.1513 18.1941C15.6187 19.509 13.6281 20.3047 11.4551 20.3047Z" fill="#9B97EC"/>
</g>
<defs>
<clipPath id="clip0">
<rect width="23" height="23" fill="white"/>
</clipPath>
</defs>
</svg>
