<svg width="23" height="23" viewBox="0 0 23 23" fill="none" xmlns="http://www.w3.org/2000/svg">
<g clip-path="url(#clip0)">
<path d="M19.7507 21.6473L10.7046 16.8576C10.4688 16.7325 10.1813 16.7498 9.9585 16.9007L3.04126 21.6905C2.78251 21.8701 2.67038 22.1965 2.76526 22.4969C2.85726 22.7945 3.13613 23 3.44951 23H19.4129C19.7421 23 20.0311 22.7758 20.1101 22.4538C20.1906 22.1332 20.0411 21.8011 19.7507 21.6473Z" fill="#5D58B7"/>
<path d="M22.7781 20.2816L20.6506 10.7035C20.5989 10.4692 20.4336 10.278 20.2107 10.1904C19.9865 10.1027 19.7349 10.1329 19.5394 10.268L12.6208 15.0577C12.4138 15.2015 12.2973 15.4416 12.3131 15.6902C12.3275 15.9418 12.4727 16.1661 12.6941 16.2825L21.7388 21.0723C21.8452 21.1283 21.9602 21.1571 22.0752 21.1571C22.229 21.1571 22.3828 21.1082 22.5107 21.009C22.7336 20.8394 22.8385 20.5562 22.7781 20.2816Z" fill="#5D58B7"/>
<path d="M17.7727 9.12956C17.6779 8.82912 17.4004 8.625 17.0856 8.625H10.5249C9.33175 10.7856 7.5665 12.8512 6.84056 13.6591C6.43231 14.1134 5.84725 14.375 5.23631 14.375C4.62538 14.375 4.04031 14.1134 3.63206 13.6591C3.35175 13.3472 2.91763 12.8484 2.42025 12.2303L0.680878 20.0589C0.617628 20.3478 0.736941 20.6454 0.981315 20.8107C1.10207 20.8926 1.24294 20.9329 1.38238 20.9329C1.52613 20.9329 1.66844 20.8912 1.79207 20.8049L17.4939 9.93312C17.7541 9.75631 17.8647 9.43 17.7727 9.12956Z" fill="#5D58B7"/>
<path d="M5.23631 0C2.46194 0 0.205063 2.25688 0.205063 5.03125C0.205063 7.613 4.24156 12.1857 4.70156 12.6989C4.83813 12.8498 5.03219 12.9375 5.23631 12.9375C5.44044 12.9375 5.6345 12.8498 5.77106 12.6989C6.23106 12.1857 10.2676 7.613 10.2676 5.03125C10.2676 2.25688 8.01069 0 5.23631 0ZM5.23631 7.1875C4.04606 7.1875 3.08006 6.2215 3.08006 5.03125C3.08006 3.841 4.04606 2.875 5.23631 2.875C6.42656 2.875 7.39256 3.841 7.39256 5.03125C7.39256 6.2215 6.42656 7.1875 5.23631 7.1875Z" fill="#5D58B7"/>
</g>
<defs>
<clipPath id="clip0">
<rect width="23" height="23" fill="white"/>
</clipPath>
</defs>
</svg>
